<svg width="29" height="34" viewBox="0 0 29 34" fill="none" xmlns="http://www.w3.org/2000/svg">
<circle cx="14.4" cy="15.0191" r="14.4" fill="#1B92FF"/>
<mask id="mask0_638_1015" style="mask-type:alpha" maskUnits="userSpaceOnUse" x="14" y="0" width="15" height="34">
<rect width="14.4" height="32.76" transform="matrix(1 0 0 -1 14.3999 33.3789)" fill="#D9D9D9"/>
</mask>
<g mask="url(#mask0_638_1015)">
<path d="M-7.24792e-05 15.0191C-7.24792e-05 26.8991 14.3999 33.3791 14.3999 33.3791C14.3999 33.3791 28.7999 26.8991 28.7999 15.0191C28.7999 7.06624 22.3528 0.619141 14.3999 0.619141C6.44703 0.619141 -7.24792e-05 7.06624 -7.24792e-05 15.0191Z" fill="#1B92FF"/>
</g>
<rect x="18.0294" y="9.55078" width="4.032" height="10.944" rx="2.016" fill="#E9F4FF"/>
<rect x="11.0271" y="9.57031" width="4.032" height="10.944" rx="2.016" fill="#E9F4FF"/>
<rect opacity="0.8" x="13.0499" y="8.72656" width="4.032" height="13.8697" rx="2.016" transform="rotate(45.4799 13.0499 8.72656)" fill="#E9F4FF"/>
<rect opacity="0.8" x="22.8508" y="12.9785" width="3.9766" height="7.83348" rx="1.9883" transform="rotate(45.4799 22.8508 12.9785)" fill="#E9F4FF"/>
<rect opacity="0.8" x="20.0522" y="8.70703" width="4.07846" height="13.8196" rx="2.03923" transform="rotate(45.4799 20.0522 8.70703)" fill="#E9F4FF"/>
</svg>
