<svg width="486" height="286" viewBox="0 0 486 286" fill="none" xmlns="http://www.w3.org/2000/svg">
<circle cx="433" cy="259" r="31" fill="#242945"/>
<path d="M168 250H451C451 258.837 443.837 266 435 266H184C175.163 266 168 258.837 168 250Z" fill="#242945"/>
<path d="M51 103C51 85.3269 65.3269 71 83 71H150V234C150 242.837 142.837 250 134 250H83C65.3269 250 51 235.673 51 218V103Z" fill="#E9F4FF"/>
<path d="M18 157C18 139.327 32.3269 125 50 125H101V234C101 242.837 93.8366 250 85 250H50C32.3269 250 18 235.673 18 218V157Z" fill="#E9F4FF"/>
<path d="M150 20C150 8.9543 158.954 0 170 0H466C477.046 0 486 8.9543 486 20V234C486 242.837 478.837 250 470 250H166C157.163 250 150 242.837 150 234V20Z" fill="#1B92FF"/>
<circle cx="90" cy="259" r="31" fill="#242945"/>
<path d="M61 105C61 91.7452 71.7452 81 85 81H132C136.418 81 140 84.5817 140 89V128C140 132.418 136.418 136 132 136H69C64.5817 136 61 132.418 61 128V105Z" fill="#242945"/>
<circle cx="18" cy="188" r="18" fill="#1B92FF"/>
</svg>
