<svg width="64" height="64" viewBox="0 0 64 64" fill="none" xmlns="http://www.w3.org/2000/svg">
<rect x="0.5" y="0.5" width="63" height="63" rx="15.5" fill="white"/>
<rect x="0.5" y="0.5" width="63" height="63" rx="15.5" stroke="#E6E6E6"/>
<path d="M32.0342 41.0114C30.9244 42.1213 29.5873 42.6762 28.0229 42.6763C26.4585 42.6764 25.1215 42.1216 24.0118 41.0119C22.9021 39.9022 22.3471 38.565 22.3469 37.0003C22.3467 35.4356 22.9015 34.0984 24.0113 32.9885L26.68 30.3199C26.8678 30.1321 27.0888 30.0382 27.343 30.0383C27.5971 30.0383 27.8182 30.1323 28.0061 30.3202C28.194 30.5081 28.2878 30.729 28.2877 30.983C28.2876 31.237 28.1936 31.4579 28.0058 31.6457L25.3361 34.3153C24.5945 35.0569 24.2238 35.9518 24.2238 37C24.2238 38.0482 24.5949 38.9434 25.3371 39.6856C26.0794 40.4279 26.9746 40.799 28.0228 40.799C29.071 40.799 29.9659 40.4282 30.7074 39.6867L33.3771 37.017C33.5649 36.8292 33.7859 36.7353 34.04 36.7353C34.2942 36.7354 34.5152 36.8294 34.7031 37.0173C34.8911 37.2052 34.9849 37.4261 34.9848 37.6801C34.9847 37.9341 34.8907 38.1549 34.7029 38.3428L32.0342 41.0114ZM30.4194 35.9291C30.2316 36.1169 30.0106 36.2108 29.7565 36.2108C29.5023 36.2107 29.2813 36.1167 29.0934 35.9288C28.9054 35.7409 28.8116 35.52 28.8117 35.266C28.8118 35.012 28.9058 34.7912 29.0936 34.6033L34.3969 29.3C34.5848 29.1122 34.8058 29.0183 35.0599 29.0184C35.3141 29.0184 35.5351 29.1124 35.723 29.3003C35.9109 29.4882 36.0048 29.7092 36.0047 29.9631C36.0045 30.2171 35.9106 30.438 35.7227 30.6258L30.4194 35.9291ZM38.1364 34.9092C37.9486 35.0971 37.7276 35.1909 37.4734 35.1909C37.2193 35.1908 36.9982 35.0968 36.8103 34.9089C36.6224 34.721 36.5285 34.5001 36.5287 34.2461C36.5288 33.9922 36.6228 33.7713 36.8106 33.5835L39.4803 30.9138C40.2218 30.1722 40.5926 29.2774 40.5926 28.2292C40.5926 27.181 40.2215 26.2857 39.4793 25.5435C38.737 24.8013 37.8418 24.4301 36.7936 24.4301C35.7454 24.4301 34.8505 24.8009 34.109 25.5425L31.4393 28.2121C31.2515 28.4 31.0305 28.4939 30.7763 28.4938C30.5222 28.4937 30.3011 28.3998 30.1132 28.2119C29.9253 28.0239 29.8314 27.803 29.8316 27.549C29.8317 27.2951 29.9257 27.0742 30.1135 26.8864L32.7822 24.2177C33.892 23.1079 35.2291 22.5529 36.7935 22.5528C38.3578 22.5527 39.6949 23.1075 40.8046 24.2172C41.9143 25.3269 42.4692 26.6641 42.4695 28.2288C42.4697 29.7935 41.9149 31.1308 40.805 32.2406L38.1364 34.9092Z" fill="#ABABAB"/>
</svg>
